solid ASCII
  facet normal 0.000000e+00 4.819187e-01 -8.762160e-01
    outer loop
      vertex   0.000000e+00 1.044863e+01 -9.280000e+01
      vertex   0.000000e+00 2.030000e+01 -8.738174e+01
      vertex   1.976000e+02 1.044863e+01 -9.280000e+01
    endloop
  endfacet
  facet normal 0.000000e+00 4.819187e-01 -8.762160e-01
    outer loop
      vertex   1.976000e+02 1.044863e+01 -9.280000e+01
      vertex   0.000000e+00 2.030000e+01 -8.738174e+01
      vertex   1.976000e+02 2.030000e+01 -8.738174e+01
    endloop
  endfacet
  facet normal 0.000000e+00 0.000000e+00 -1.000000e+00
    outer loop
      vertex   0.000000e+00 1.623607e+00 -9.280000e+01
      vertex   0.000000e+00 1.044863e+01 -9.280000e+01
      vertex   1.976000e+02 1.623607e+00 -9.280000e+01
    endloop
  endfacet
  facet normal 0.000000e+00 0.000000e+00 -1.000000e+00
    outer loop
      vertex   1.976000e+02 1.623607e+00 -9.280000e+01
      vertex   0.000000e+00 1.044863e+01 -9.280000e+01
      vertex   1.976000e+02 1.044863e+01 -9.280000e+01
    endloop
  endfacet
  facet normal 0.000000e+00 -8.944272e-01 -4.472136e-01
    outer loop
      vertex   0.000000e+00 2.000000e-01 -8.995278e+01
      vertex   0.000000e+00 1.623607e+00 -9.280000e+01
      vertex   1.976000e+02 2.000000e-01 -8.995278e+01
    endloop
  endfacet
  facet normal 0.000000e+00 -8.944272e-01 -4.472136e-01
    outer loop
      vertex   1.976000e+02 2.000000e-01 -8.995278e+01
      vertex   0.000000e+00 1.623607e+00 -9.280000e+01
      vertex   1.976000e+02 1.623607e+00 -9.280000e+01
    endloop
  endfacet
  facet normal 0.000000e+00 -1.000000e+00 0.000000e+00
    outer loop
      vertex   0.000000e+00 2.000000e-01 -3.047214e+00
      vertex   0.000000e+00 2.000000e-01 -8.995278e+01
      vertex   1.976000e+02 2.000000e-01 -3.047214e+00
    endloop
  endfacet
  facet normal 0.000000e+00 -1.000000e+00 -0.000000e+00
    outer loop
      vertex   1.976000e+02 2.000000e-01 -3.047214e+00
      vertex   0.000000e+00 2.000000e-01 -8.995278e+01
      vertex   1.976000e+02 2.000000e-01 -8.995278e+01
    endloop
  endfacet
  facet normal 0.000000e+00 -8.944272e-01 4.472136e-01
    outer loop
      vertex   0.000000e+00 1.623607e+00 -2.000000e-01
      vertex   0.000000e+00 2.000000e-01 -3.047214e+00
      vertex   1.976000e+02 1.623607e+00 -2.000000e-01
    endloop
  endfacet
  facet normal 0.000000e+00 -8.944272e-01 4.472136e-01
    outer loop
      vertex   1.976000e+02 1.623607e+00 -2.000000e-01
      vertex   0.000000e+00 2.000000e-01 -3.047214e+00
      vertex   1.976000e+02 2.000000e-01 -3.047214e+00
    endloop
  endfacet
  facet normal -0.000000e+00 0.000000e+00 1.000000e+00
    outer loop
      vertex   0.000000e+00 1.044863e+01 -2.000000e-01
      vertex   0.000000e+00 1.623607e+00 -2.000000e-01
      vertex   1.976000e+02 1.044863e+01 -2.000000e-01
    endloop
  endfacet
  facet normal 0.000000e+00 0.000000e+00 1.000000e+00
    outer loop
      vertex   1.976000e+02 1.044863e+01 -2.000000e-01
      vertex   0.000000e+00 1.623607e+00 -2.000000e-01
      vertex   1.976000e+02 1.623607e+00 -2.000000e-01
    endloop
  endfacet
  facet normal -0.000000e+00 4.819187e-01 8.762159e-01
    outer loop
      vertex   0.000000e+00 2.030000e+01 -5.618254e+00
      vertex   0.000000e+00 1.044863e+01 -2.000000e-01
      vertex   1.976000e+02 2.030000e+01 -5.618254e+00
    endloop
  endfacet
  facet normal 0.000000e+00 4.819187e-01 8.762159e-01
    outer loop
      vertex   1.976000e+02 2.030000e+01 -5.618254e+00
      vertex   0.000000e+00 1.044863e+01 -2.000000e-01
      vertex   1.976000e+02 1.044863e+01 -2.000000e-01
    endloop
  endfacet
  facet normal 0.000000e+00 1.000000e+00 0.000000e+00
    outer loop
      vertex   0.000000e+00 2.030000e+01 -8.738174e+01
      vertex   0.000000e+00 2.030000e+01 -5.618254e+00
      vertex   1.976000e+02 2.030000e+01 -8.738174e+01
    endloop
  endfacet
  facet normal 0.000000e+00 1.000000e+00 -0.000000e+00
    outer loop
      vertex   1.976000e+02 2.030000e+01 -8.738174e+01
      vertex   0.000000e+00 2.030000e+01 -5.618254e+00
      vertex   1.976000e+02 2.030000e+01 -5.618254e+00
    endloop
  endfacet
  facet normal 1.000000e+00 -0.000000e+00 0.000000e+00
    outer loop
      vertex   1.976000e+02 2.000000e-01 -3.047214e+00
      vertex   1.976000e+02 2.000000e-01 -8.995278e+01
      vertex   1.976000e+02 1.623607e+00 -2.000000e-01
    endloop
  endfacet
  facet normal 1.000000e+00 0.000000e+00 0.000000e+00
    outer loop
      vertex   1.976000e+02 1.623607e+00 -2.000000e-01
      vertex   1.976000e+02 2.000000e-01 -8.995278e+01
      vertex   1.976000e+02 1.623607e+00 -9.280000e+01
    endloop
  endfacet
  facet normal 1.000000e+00 -0.000000e+00 0.000000e+00
    outer loop
      vertex   1.976000e+02 1.623607e+00 -2.000000e-01
      vertex   1.976000e+02 1.623607e+00 -9.280000e+01
      vertex   1.976000e+02 1.044863e+01 -2.000000e-01
    endloop
  endfacet
  facet normal 1.000000e+00 0.000000e+00 0.000000e+00
    outer loop
      vertex   1.976000e+02 1.044863e+01 -2.000000e-01
      vertex   1.976000e+02 1.623607e+00 -9.280000e+01
      vertex   1.976000e+02 1.044863e+01 -9.280000e+01
    endloop
  endfacet
  facet normal 1.000000e+00 0.000000e+00 0.000000e+00
    outer loop
      vertex   1.976000e+02 1.044863e+01 -2.000000e-01
      vertex   1.976000e+02 1.044863e+01 -9.280000e+01
      vertex   1.976000e+02 2.030000e+01 -5.618254e+00
    endloop
  endfacet
  facet normal 1.000000e+00 0.000000e+00 0.000000e+00
    outer loop
      vertex   1.976000e+02 2.030000e+01 -5.618254e+00
      vertex   1.976000e+02 1.044863e+01 -9.280000e+01
      vertex   1.976000e+02 2.030000e+01 -8.738174e+01
    endloop
  endfacet
  facet normal -1.000000e+00 0.000000e+00 0.000000e+00
    outer loop
      vertex   0.000000e+00 2.000000e-01 -8.995278e+01
      vertex   0.000000e+00 2.000000e-01 -3.047214e+00
      vertex   0.000000e+00 1.623607e+00 -9.280000e+01
    endloop
  endfacet
  facet normal -1.000000e+00 0.000000e+00 0.000000e+00
    outer loop
      vertex   0.000000e+00 1.623607e+00 -9.280000e+01
      vertex   0.000000e+00 2.000000e-01 -3.047214e+00
      vertex   0.000000e+00 1.623607e+00 -2.000000e-01
    endloop
  endfacet
  facet normal -1.000000e+00 0.000000e+00 0.000000e+00
    outer loop
      vertex   0.000000e+00 1.623607e+00 -9.280000e+01
      vertex   0.000000e+00 1.623607e+00 -2.000000e-01
      vertex   0.000000e+00 1.044863e+01 -9.280000e+01
    endloop
  endfacet
  facet normal -1.000000e+00 0.000000e+00 0.000000e+00
    outer loop
      vertex   0.000000e+00 1.044863e+01 -9.280000e+01
      vertex   0.000000e+00 1.623607e+00 -2.000000e-01
      vertex   0.000000e+00 1.044863e+01 -2.000000e-01
    endloop
  endfacet
  facet normal -1.000000e+00 0.000000e+00 0.000000e+00
    outer loop
      vertex   0.000000e+00 1.044863e+01 -9.280000e+01
      vertex   0.000000e+00 1.044863e+01 -2.000000e-01
      vertex   0.000000e+00 2.030000e+01 -8.738174e+01
    endloop
  endfacet
  facet normal -1.000000e+00 0.000000e+00 0.000000e+00
    outer loop
      vertex   0.000000e+00 2.030000e+01 -8.738174e+01
      vertex   0.000000e+00 1.044863e+01 -2.000000e-01
      vertex   0.000000e+00 2.030000e+01 -5.618254e+00
    endloop
  endfacet
endsolid
